# xmcd
# 
# Track frame offsets:
#     150
#     20111
#     41416
#     57358
#     77266
#     92413
#     107605
#     121700
#     139443
#     159039
#     172172
#     191522
#     201654
#     221051
#     236351
#     258247
#     273392
#     294957
# 
# Disc length: 4241
# 
# Revision: 1
# Processed by: cddbd v1.5.2PL0 Copyright (c) Steve Scherf et al.
# Submitted via: BonkEnc v1.0.8
# 
DISCID=f8108f12
DTITLE=Los del Caimán - Cantándole a Cuba
DYEAR=2005
DGENRE=Salsa
TTITLE0=Por un Beso
TTITLE1=Amarrado con P
TTITLE2=La Timba
TTITLE3=El Bodeguero
TTITLE4=Inolvidable
TTITLE5=Vacilón
TTITLE6=Hasta Siempre
TTITLE7=Por las Calles da La Habana
TTITLE8=Ingrata
TTITLE9=La Vida es un Sueño
TTITLE10=Chan - Chan
TTITLE11=Alli
TTITLE12=El Cuarto de Tula
TTITLE13=Guajíra Guantanamera
TTITLE14=Son de La Loma
TTITLE15=Ysillego a Besarte
TTITLE16=Traigo la Rumba
TTITLE17=Ya no te Amo
EXTD=YEAR: 2005
EXTT0=
EXTT1=
EXTT2=
EXTT3=
EXTT4=
EXTT5=
EXTT6=
EXTT7=
EXTT8=
EXTT9=
EXTT10=
EXTT11=
EXTT12=
EXTT13=
EXTT14=
EXTT15=
EXTT16=
EXTT17=
PLAYORDER=
